<svg width="112" height="40" viewBox="0 0 112 40" fill="none" xmlns="http://www.w3.org/2000/svg">
<path d="M40.0002 10.0839L30.0256 15.2625C21.6663 19.6025 17.4866 21.7724 17.399 24.5763C17.3114 27.3802 21.3501 29.7231 29.4274 34.4088L39.0657 40C24.3029 31.4291 24.7099 18.0332 40.0002 10.0839Z" fill="#E5ABF3"/>
<path d="M0 29.9259L9.80967 24.5392C18.0307 20.0249 22.1412 17.7678 22.1412 14.9629C22.1412 12.1581 18.0307 9.90097 9.80967 5.38666L2.38219e-06 0C15.0256 8.25766 15.0371 21.6577 0 29.9259Z" fill="#0C9347"/>
<path d="M48.3733 30.1867C47.0044 30.1867 45.7955 29.9555 44.7466 29.4933C43.6977 29.0133 42.871 28.3378 42.2666 27.4667C41.6621 26.5778 41.351 25.5022 41.3333 24.24H44.9333C44.9688 25.1111 45.2799 25.8489 45.8666 26.4533C46.471 27.04 47.2977 27.3333 48.3466 27.3333C49.2533 27.3333 49.9733 27.12 50.5066 26.6933C51.0399 26.2489 51.3066 25.6622 51.3066 24.9333C51.3066 24.1689 51.0666 23.5733 50.5866 23.1467C50.1244 22.72 49.5021 22.3733 48.7199 22.1067C47.9377 21.84 47.1021 21.5555 46.2133 21.2533C44.7733 20.7555 43.671 20.1155 42.9066 19.3333C42.1599 18.5511 41.7866 17.5111 41.7866 16.2133C41.7688 15.1111 42.0266 14.1689 42.5599 13.3867C43.111 12.5867 43.8577 11.9733 44.7999 11.5467C45.7421 11.1022 46.8266 10.88 48.0533 10.88C49.2977 10.88 50.391 11.1022 51.3333 11.5467C52.2933 11.9911 53.0399 12.6133 53.5733 13.4133C54.1244 14.2133 54.4177 15.1644 54.4533 16.2667H50.7999C50.7821 15.6089 50.5244 15.0311 50.0266 14.5333C49.5466 14.0178 48.871 13.76 47.9999 13.76C47.2533 13.7422 46.6221 13.9289 46.1066 14.32C45.6088 14.6933 45.3599 15.2444 45.3599 15.9733C45.3599 16.5955 45.5555 17.0933 45.9466 17.4667C46.3377 17.8222 46.871 18.1244 47.5466 18.3733C48.2221 18.6222 48.9955 18.8889 49.8666 19.1733C50.791 19.4933 51.6355 19.8667 52.3999 20.2933C53.1644 20.72 53.7777 21.2889 54.2399 22C54.7021 22.6933 54.9333 23.5911 54.9333 24.6933C54.9333 25.6711 54.6844 26.5778 54.1866 27.4133C53.6888 28.2489 52.951 28.9244 51.9733 29.44C50.9955 29.9378 49.7955 30.1867 48.3733 30.1867Z" fill="#0E0E0E"/>
<path d="M64.178 30.1867C62.898 30.1867 61.7425 29.8933 60.7114 29.3067C59.698 28.72 58.8892 27.9111 58.2847 26.88C57.698 25.8311 57.4047 24.6222 57.4047 23.2533C57.4047 21.8844 57.7069 20.6844 58.3114 19.6533C58.9158 18.6044 59.7247 17.7867 60.738 17.2C61.7692 16.6133 62.9247 16.32 64.2047 16.32C65.4669 16.32 66.6047 16.6133 67.618 17.2C68.6492 17.7867 69.458 18.6044 70.0447 19.6533C70.6492 20.6844 70.9514 21.8844 70.9514 23.2533C70.9514 24.6222 70.6492 25.8311 70.0447 26.88C69.458 27.9111 68.6492 28.72 67.618 29.3067C66.5869 29.8933 65.4403 30.1867 64.178 30.1867ZM64.178 27.2267C65.0669 27.2267 65.8403 26.8978 66.498 26.24C67.1558 25.5644 67.4847 24.5689 67.4847 23.2533C67.4847 21.9378 67.1558 20.9511 66.498 20.2933C65.8403 19.6178 65.0758 19.28 64.2047 19.28C63.298 19.28 62.5158 19.6178 61.858 20.2933C61.218 20.9511 60.898 21.9378 60.898 23.2533C60.898 24.5689 61.218 25.5644 61.858 26.24C62.5158 26.8978 63.2892 27.2267 64.178 27.2267Z" fill="#0E0E0E"/>
<path d="M74.6166 29.8667V19.4933H72.8033V16.64H74.6166V15.0933C74.6166 13.4933 75.0166 12.3555 75.8166 11.68C76.6344 11.0044 77.7366 10.6667 79.1233 10.6667H80.5899V13.5733H79.6566C79.0699 13.5733 78.6521 13.6889 78.4032 13.92C78.1544 14.1511 78.0299 14.5422 78.0299 15.0933V16.64H80.8833V19.4933H78.0299V29.8667H74.6166Z" fill="#0E0E0E"/>
<path d="M87.6258 30.1867C86.488 30.1867 85.5546 30.0089 84.8257 29.6533C84.0969 29.28 83.5546 28.7911 83.1991 28.1867C82.8435 27.5822 82.6657 26.9155 82.6657 26.1867C82.6657 24.96 83.1458 23.9644 84.1058 23.2C85.0658 22.4355 86.5057 22.0533 88.4257 22.0533H91.7857V21.7333C91.7857 20.8267 91.528 20.16 91.0124 19.7333C90.4969 19.3067 89.8569 19.0933 89.0924 19.0933C88.3991 19.0933 87.7946 19.2622 87.2791 19.6C86.7635 19.92 86.4435 20.4 86.3191 21.04H82.9857C83.0746 20.08 83.3946 19.2444 83.9457 18.5333C84.5146 17.8222 85.2435 17.28 86.1324 16.9067C87.0213 16.5155 88.0169 16.32 89.1191 16.32C91.0035 16.32 92.488 16.7911 93.5724 17.7333C94.6569 18.6755 95.1991 20.0089 95.1991 21.7333V29.8667H92.2924L91.9724 27.7333C91.5813 28.4444 91.0302 29.0311 90.3191 29.4933C89.6258 29.9555 88.728 30.1867 87.6258 30.1867ZM88.3991 27.52C89.3769 27.52 90.1324 27.2 90.6657 26.56C91.2169 25.92 91.5635 25.1289 91.7058 24.1867H88.7991C87.8924 24.1867 87.2435 24.3555 86.8524 24.6933C86.4613 25.0133 86.2657 25.4133 86.2657 25.8933C86.2657 26.4089 86.4613 26.8089 86.8524 27.0933C87.2435 27.3778 87.7591 27.52 88.3991 27.52Z" fill="#0E0E0E"/>
<path d="M97.203 29.8667L102.003 23.2533L97.203 16.64H100.856L104.216 21.3333L107.55 16.64H111.23L106.403 23.2533L111.23 29.8667H107.55L104.216 25.1733L100.856 29.8667H97.203Z" fill="#0E0E0E"/>
<path d="M48.3733 30.1867C47.0044 30.1867 45.7955 29.9555 44.7466 29.4933C43.6977 29.0133 42.871 28.3378 42.2666 27.4667C41.6621 26.5778 41.351 25.5022 41.3333 24.24H44.9333C44.9688 25.1111 45.2799 25.8489 45.8666 26.4533C46.471 27.04 47.2977 27.3333 48.3466 27.3333C49.2533 27.3333 49.9733 27.12 50.5066 26.6933C51.0399 26.2489 51.3066 25.6622 51.3066 24.9333C51.3066 24.1689 51.0666 23.5733 50.5866 23.1467C50.1244 22.72 49.5021 22.3733 48.7199 22.1067C47.9377 21.84 47.1021 21.5555 46.2133 21.2533C44.7733 20.7555 43.671 20.1155 42.9066 19.3333C42.1599 18.5511 41.7866 17.5111 41.7866 16.2133C41.7688 15.1111 42.0266 14.1689 42.5599 13.3867C43.111 12.5867 43.8577 11.9733 44.7999 11.5467C45.7421 11.1022 46.8266 10.88 48.0533 10.88C49.2977 10.88 50.391 11.1022 51.3333 11.5467C52.2933 11.9911 53.0399 12.6133 53.5733 13.4133C54.1244 14.2133 54.4177 15.1644 54.4533 16.2667H50.7999C50.7821 15.6089 50.5244 15.0311 50.0266 14.5333C49.5466 14.0178 48.871 13.76 47.9999 13.76C47.2533 13.7422 46.6221 13.9289 46.1066 14.32C45.6088 14.6933 45.3599 15.2444 45.3599 15.9733C45.3599 16.5955 45.5555 17.0933 45.9466 17.4667C46.3377 17.8222 46.871 18.1244 47.5466 18.3733C48.2221 18.6222 48.9955 18.8889 49.8666 19.1733C50.791 19.4933 51.6355 19.8667 52.3999 20.2933C53.1644 20.72 53.7777 21.2889 54.2399 22C54.7021 22.6933 54.9333 23.5911 54.9333 24.6933C54.9333 25.6711 54.6844 26.5778 54.1866 27.4133C53.6888 28.2489 52.951 28.9244 51.9733 29.44C50.9955 29.9378 49.7955 30.1867 48.3733 30.1867Z" stroke="#0E0E0E" stroke-width="0.25"/>
<path d="M64.178 30.1867C62.898 30.1867 61.7425 29.8933 60.7114 29.3067C59.698 28.72 58.8892 27.9111 58.2847 26.88C57.698 25.8311 57.4047 24.6222 57.4047 23.2533C57.4047 21.8844 57.7069 20.6844 58.3114 19.6533C58.9158 18.6044 59.7247 17.7867 60.738 17.2C61.7692 16.6133 62.9247 16.32 64.2047 16.32C65.4669 16.32 66.6047 16.6133 67.618 17.2C68.6492 17.7867 69.458 18.6044 70.0447 19.6533C70.6492 20.6844 70.9514 21.8844 70.9514 23.2533C70.9514 24.6222 70.6492 25.8311 70.0447 26.88C69.458 27.9111 68.6492 28.72 67.618 29.3067C66.5869 29.8933 65.4403 30.1867 64.178 30.1867ZM64.178 27.2267C65.0669 27.2267 65.8403 26.8978 66.498 26.24C67.1558 25.5644 67.4847 24.5689 67.4847 23.2533C67.4847 21.9378 67.1558 20.9511 66.498 20.2933C65.8403 19.6178 65.0758 19.28 64.2047 19.28C63.298 19.28 62.5158 19.6178 61.858 20.2933C61.218 20.9511 60.898 21.9378 60.898 23.2533C60.898 24.5689 61.218 25.5644 61.858 26.24C62.5158 26.8978 63.2892 27.2267 64.178 27.2267Z" stroke="#0E0E0E" stroke-width="0.25"/>
<path d="M74.6166 29.8667V19.4933H72.8033V16.64H74.6166V15.0933C74.6166 13.4933 75.0166 12.3555 75.8166 11.68C76.6344 11.0044 77.7366 10.6667 79.1233 10.6667H80.5899V13.5733H79.6566C79.0699 13.5733 78.6521 13.6889 78.4032 13.92C78.1544 14.1511 78.0299 14.5422 78.0299 15.0933V16.64H80.8833V19.4933H78.0299V29.8667H74.6166Z" stroke="#0E0E0E" stroke-width="0.25"/>
<path d="M87.6258 30.1867C86.488 30.1867 85.5546 30.0089 84.8257 29.6533C84.0969 29.28 83.5546 28.7911 83.1991 28.1867C82.8435 27.5822 82.6657 26.9155 82.6657 26.1867C82.6657 24.96 83.1458 23.9644 84.1058 23.2C85.0658 22.4355 86.5057 22.0533 88.4257 22.0533H91.7857V21.7333C91.7857 20.8267 91.528 20.16 91.0124 19.7333C90.4969 19.3067 89.8569 19.0933 89.0924 19.0933C88.3991 19.0933 87.7946 19.2622 87.2791 19.6C86.7635 19.92 86.4435 20.4 86.3191 21.04H82.9857C83.0746 20.08 83.3946 19.2444 83.9457 18.5333C84.5146 17.8222 85.2435 17.28 86.1324 16.9067C87.0213 16.5155 88.0169 16.32 89.1191 16.32C91.0035 16.32 92.488 16.7911 93.5724 17.7333C94.6569 18.6755 95.1991 20.0089 95.1991 21.7333V29.8667H92.2924L91.9724 27.7333C91.5813 28.4444 91.0302 29.0311 90.3191 29.4933C89.6258 29.9555 88.728 30.1867 87.6258 30.1867ZM88.3991 27.52C89.3769 27.52 90.1324 27.2 90.6657 26.56C91.2169 25.92 91.5635 25.1289 91.7058 24.1867H88.7991C87.8924 24.1867 87.2435 24.3555 86.8524 24.6933C86.4613 25.0133 86.2657 25.4133 86.2657 25.8933C86.2657 26.4089 86.4613 26.8089 86.8524 27.0933C87.2435 27.3778 87.7591 27.52 88.3991 27.52Z" stroke="#0E0E0E" stroke-width="0.25"/>
<path d="M97.203 29.8667L102.003 23.2533L97.203 16.64H100.856L104.216 21.3333L107.55 16.64H111.23L106.403 23.2533L111.23 29.8667H107.55L104.216 25.1733L100.856 29.8667H97.203Z" stroke="#0E0E0E" stroke-width="0.25"/>
</svg>
