<svg width="112" height="40" viewBox="0 0 112 40" fill="none" xmlns="http://www.w3.org/2000/svg">
<path d="M40.0005 10.0839L30.0258 15.2625C21.6665 19.6025 17.4869 21.7724 17.3993 24.5763C17.3117 27.3802 21.3504 29.7231 29.4277 34.4088L39.0659 40C24.3031 31.4291 24.7101 18.0332 40.0005 10.0839Z" fill="#E5ABF3"/>
<path d="M0 29.9259L9.80967 24.5392C18.0307 20.0249 22.1412 17.7678 22.1412 14.9629C22.1412 12.1581 18.0307 9.90097 9.80967 5.38666L2.38219e-06 0C15.0256 8.25766 15.0371 21.6577 0 29.9259Z" fill="#0C9347"/>
<path d="M48.3735 30.1867C47.0046 30.1867 45.7957 29.9555 44.7468 29.4933C43.6979 29.0133 42.8713 28.3378 42.2668 27.4667C41.6624 26.5778 41.3513 25.5022 41.3335 24.24H44.9335C44.9691 25.1111 45.2802 25.8489 45.8668 26.4533C46.4713 27.04 47.2979 27.3333 48.3468 27.3333C49.2535 27.3333 49.9735 27.12 50.5068 26.6933C51.0402 26.2489 51.3068 25.6622 51.3068 24.9333C51.3068 24.1689 51.0668 23.5733 50.5868 23.1467C50.1246 22.72 49.5024 22.3733 48.7202 22.1067C47.9379 21.84 47.1024 21.5555 46.2135 21.2533C44.7735 20.7555 43.6713 20.1155 42.9068 19.3333C42.1602 18.5511 41.7868 17.5111 41.7868 16.2133C41.7691 15.1111 42.0268 14.1689 42.5602 13.3867C43.1113 12.5867 43.8579 11.9733 44.8002 11.5467C45.7424 11.1022 46.8268 10.88 48.0535 10.88C49.2979 10.88 50.3913 11.1022 51.3335 11.5467C52.2935 11.9911 53.0402 12.6133 53.5735 13.4133C54.1246 14.2133 54.4179 15.1644 54.4535 16.2667H50.8002C50.7824 15.6089 50.5246 15.0311 50.0268 14.5333C49.5468 14.0178 48.8713 13.76 48.0002 13.76C47.2535 13.7422 46.6224 13.9289 46.1068 14.32C45.6091 14.6933 45.3602 15.2444 45.3602 15.9733C45.3602 16.5955 45.5557 17.0933 45.9468 17.4667C46.3379 17.8222 46.8713 18.1244 47.5468 18.3733C48.2224 18.6222 48.9957 18.8889 49.8668 19.1733C50.7913 19.4933 51.6357 19.8667 52.4002 20.2933C53.1646 20.72 53.7779 21.2889 54.2402 22C54.7024 22.6933 54.9335 23.5911 54.9335 24.6933C54.9335 25.6711 54.6846 26.5778 54.1868 27.4133C53.6891 28.2489 52.9513 28.9244 51.9735 29.44C50.9957 29.9378 49.7957 30.1867 48.3735 30.1867Z" fill="white"/>
<path d="M64.1783 30.1867C62.8983 30.1867 61.7427 29.8933 60.7116 29.3067C59.6983 28.72 58.8894 27.9111 58.285 26.88C57.6983 25.8311 57.405 24.6222 57.405 23.2533C57.405 21.8844 57.7072 20.6844 58.3116 19.6533C58.9161 18.6044 59.725 17.7867 60.7383 17.2C61.7694 16.6133 62.925 16.32 64.205 16.32C65.4672 16.32 66.605 16.6133 67.6183 17.2C68.6494 17.7867 69.4583 18.6044 70.045 19.6533C70.6494 20.6844 70.9516 21.8844 70.9516 23.2533C70.9516 24.6222 70.6494 25.8311 70.045 26.88C69.4583 27.9111 68.6494 28.72 67.6183 29.3067C66.5872 29.8933 65.4405 30.1867 64.1783 30.1867ZM64.1783 27.2267C65.0672 27.2267 65.8405 26.8978 66.4983 26.24C67.1561 25.5644 67.485 24.5689 67.485 23.2533C67.485 21.9378 67.1561 20.9511 66.4983 20.2933C65.8405 19.6178 65.0761 19.28 64.205 19.28C63.2983 19.28 62.5161 19.6178 61.8583 20.2933C61.2183 20.9511 60.8983 21.9378 60.8983 23.2533C60.8983 24.5689 61.2183 25.5644 61.8583 26.24C62.5161 26.8978 63.2894 27.2267 64.1783 27.2267Z" fill="white"/>
<path d="M74.6168 29.8667V19.4933H72.8035V16.64H74.6168V15.0933C74.6168 13.4933 75.0168 12.3555 75.8168 11.68C76.6346 11.0044 77.7368 10.6667 79.1235 10.6667H80.5902V13.5733H79.6568C79.0702 13.5733 78.6524 13.6889 78.4035 13.92C78.1546 14.1511 78.0302 14.5422 78.0302 15.0933V16.64H80.8835V19.4933H78.0302V29.8667H74.6168Z" fill="white"/>
<path d="M87.626 30.1867C86.4882 30.1867 85.5549 30.0089 84.826 29.6533C84.0971 29.28 83.5549 28.7911 83.1993 28.1867C82.8438 27.5822 82.666 26.9155 82.666 26.1867C82.666 24.96 83.146 23.9644 84.106 23.2C85.066 22.4355 86.506 22.0533 88.426 22.0533H91.786V21.7333C91.786 20.8267 91.5282 20.16 91.0127 19.7333C90.4971 19.3067 89.8571 19.0933 89.0927 19.0933C88.3993 19.0933 87.7949 19.2622 87.2793 19.6C86.7638 19.92 86.4438 20.4 86.3193 21.04H82.986C83.0749 20.08 83.3949 19.2444 83.946 18.5333C84.5149 17.8222 85.2438 17.28 86.1327 16.9067C87.0216 16.5155 88.0171 16.32 89.1193 16.32C91.0038 16.32 92.4882 16.7911 93.5727 17.7333C94.6571 18.6755 95.1993 20.0089 95.1993 21.7333V29.8667H92.2927L91.9727 27.7333C91.5815 28.4444 91.0304 29.0311 90.3193 29.4933C89.626 29.9555 88.7282 30.1867 87.626 30.1867ZM88.3993 27.52C89.3771 27.52 90.1327 27.2 90.666 26.56C91.2171 25.92 91.5638 25.1289 91.706 24.1867H88.7993C87.8927 24.1867 87.2438 24.3555 86.8527 24.6933C86.4615 25.0133 86.266 25.4133 86.266 25.8933C86.266 26.4089 86.4615 26.8089 86.8527 27.0933C87.2438 27.3778 87.7593 27.52 88.3993 27.52Z" fill="white"/>
<path d="M97.2033 29.8667L102.003 23.2533L97.2033 16.64H100.857L104.217 21.3333L107.55 16.64H111.23L106.403 23.2533L111.23 29.8667H107.55L104.217 25.1733L100.857 29.8667H97.2033Z" fill="white"/>
<path d="M48.3735 30.1867C47.0046 30.1867 45.7957 29.9555 44.7468 29.4933C43.6979 29.0133 42.8713 28.3378 42.2668 27.4667C41.6624 26.5778 41.3513 25.5022 41.3335 24.24H44.9335C44.9691 25.1111 45.2802 25.8489 45.8668 26.4533C46.4713 27.04 47.2979 27.3333 48.3468 27.3333C49.2535 27.3333 49.9735 27.12 50.5068 26.6933C51.0402 26.2489 51.3068 25.6622 51.3068 24.9333C51.3068 24.1689 51.0668 23.5733 50.5868 23.1467C50.1246 22.72 49.5024 22.3733 48.7202 22.1067C47.9379 21.84 47.1024 21.5555 46.2135 21.2533C44.7735 20.7555 43.6713 20.1155 42.9068 19.3333C42.1602 18.5511 41.7868 17.5111 41.7868 16.2133C41.7691 15.1111 42.0268 14.1689 42.5602 13.3867C43.1113 12.5867 43.8579 11.9733 44.8002 11.5467C45.7424 11.1022 46.8268 10.88 48.0535 10.88C49.2979 10.88 50.3913 11.1022 51.3335 11.5467C52.2935 11.9911 53.0402 12.6133 53.5735 13.4133C54.1246 14.2133 54.4179 15.1644 54.4535 16.2667H50.8002C50.7824 15.6089 50.5246 15.0311 50.0268 14.5333C49.5468 14.0178 48.8713 13.76 48.0002 13.76C47.2535 13.7422 46.6224 13.9289 46.1068 14.32C45.6091 14.6933 45.3602 15.2444 45.3602 15.9733C45.3602 16.5955 45.5557 17.0933 45.9468 17.4667C46.3379 17.8222 46.8713 18.1244 47.5468 18.3733C48.2224 18.6222 48.9957 18.8889 49.8668 19.1733C50.7913 19.4933 51.6357 19.8667 52.4002 20.2933C53.1646 20.72 53.7779 21.2889 54.2402 22C54.7024 22.6933 54.9335 23.5911 54.9335 24.6933C54.9335 25.6711 54.6846 26.5778 54.1868 27.4133C53.6891 28.2489 52.9513 28.9244 51.9735 29.44C50.9957 29.9378 49.7957 30.1867 48.3735 30.1867Z" stroke="white" stroke-width="0.25"/>
<path d="M64.1783 30.1867C62.8983 30.1867 61.7427 29.8933 60.7116 29.3067C59.6983 28.72 58.8894 27.9111 58.285 26.88C57.6983 25.8311 57.405 24.6222 57.405 23.2533C57.405 21.8844 57.7072 20.6844 58.3116 19.6533C58.9161 18.6044 59.725 17.7867 60.7383 17.2C61.7694 16.6133 62.925 16.32 64.205 16.32C65.4672 16.32 66.605 16.6133 67.6183 17.2C68.6494 17.7867 69.4583 18.6044 70.045 19.6533C70.6494 20.6844 70.9516 21.8844 70.9516 23.2533C70.9516 24.6222 70.6494 25.8311 70.045 26.88C69.4583 27.9111 68.6494 28.72 67.6183 29.3067C66.5872 29.8933 65.4405 30.1867 64.1783 30.1867ZM64.1783 27.2267C65.0672 27.2267 65.8405 26.8978 66.4983 26.24C67.1561 25.5644 67.485 24.5689 67.485 23.2533C67.485 21.9378 67.1561 20.9511 66.4983 20.2933C65.8405 19.6178 65.0761 19.28 64.205 19.28C63.2983 19.28 62.5161 19.6178 61.8583 20.2933C61.2183 20.9511 60.8983 21.9378 60.8983 23.2533C60.8983 24.5689 61.2183 25.5644 61.8583 26.24C62.5161 26.8978 63.2894 27.2267 64.1783 27.2267Z" stroke="white" stroke-width="0.25"/>
<path d="M74.6168 29.8667V19.4933H72.8035V16.64H74.6168V15.0933C74.6168 13.4933 75.0168 12.3555 75.8168 11.68C76.6346 11.0044 77.7368 10.6667 79.1235 10.6667H80.5902V13.5733H79.6568C79.0702 13.5733 78.6524 13.6889 78.4035 13.92C78.1546 14.1511 78.0302 14.5422 78.0302 15.0933V16.64H80.8835V19.4933H78.0302V29.8667H74.6168Z" stroke="white" stroke-width="0.25"/>
<path d="M87.626 30.1867C86.4882 30.1867 85.5549 30.0089 84.826 29.6533C84.0971 29.28 83.5549 28.7911 83.1993 28.1867C82.8438 27.5822 82.666 26.9155 82.666 26.1867C82.666 24.96 83.146 23.9644 84.106 23.2C85.066 22.4355 86.506 22.0533 88.426 22.0533H91.786V21.7333C91.786 20.8267 91.5282 20.16 91.0127 19.7333C90.4971 19.3067 89.8571 19.0933 89.0927 19.0933C88.3993 19.0933 87.7949 19.2622 87.2793 19.6C86.7638 19.92 86.4438 20.4 86.3193 21.04H82.986C83.0749 20.08 83.3949 19.2444 83.946 18.5333C84.5149 17.8222 85.2438 17.28 86.1327 16.9067C87.0216 16.5155 88.0171 16.32 89.1193 16.32C91.0038 16.32 92.4882 16.7911 93.5727 17.7333C94.6571 18.6755 95.1993 20.0089 95.1993 21.7333V29.8667H92.2927L91.9727 27.7333C91.5815 28.4444 91.0304 29.0311 90.3193 29.4933C89.626 29.9555 88.7282 30.1867 87.626 30.1867ZM88.3993 27.52C89.3771 27.52 90.1327 27.2 90.666 26.56C91.2171 25.92 91.5638 25.1289 91.706 24.1867H88.7993C87.8927 24.1867 87.2438 24.3555 86.8527 24.6933C86.4615 25.0133 86.266 25.4133 86.266 25.8933C86.266 26.4089 86.4615 26.8089 86.8527 27.0933C87.2438 27.3778 87.7593 27.52 88.3993 27.52Z" stroke="white" stroke-width="0.25"/>
<path d="M97.2033 29.8667L102.003 23.2533L97.2033 16.64H100.857L104.217 21.3333L107.55 16.64H111.23L106.403 23.2533L111.23 29.8667H107.55L104.217 25.1733L100.857 29.8667H97.2033Z" stroke="white" stroke-width="0.25"/>
</svg>
